<?xml version="1.0" encoding="UTF-8"?>
<svg width="301px" height="87px" viewBox="0 0 301 87" version="1.1" xmlns="http://www.w3.org/2000/svg" xmlns:xlink="http://www.w3.org/1999/xlink">
    <!-- Generator: Sketch 47.1 (45422) - http://www.bohemiancoding.com/sketch -->
    <title>Artboard</title>
    <desc>Created with Sketch.</desc>
    <defs>
        <rect id="path-1" x="0" y="0" width="80" height="80"></rect>
        <polygon id="path-3" points="0 0 80 0 80 64 40 81.5503244 0 64"></polygon>
        <polygon id="path-5" points="0 40.8054422 0 0.116465625 29.6896915 0.116465625 29.6896915 40.8054422"></polygon>
        <circle id="path-7" cx="40" cy="40" r="40"></circle>
    </defs>
    <g id="Page-1" stroke="none" stroke-width="1" fill="none" fill-rule="evenodd">
        <g id="Artboard">
            <g id="Group-13">
                <g id="Page-1-+-Page-1-Mask">
                    <mask id="mask-2" fill="white">
                        <use xlink:href="#path-1"></use>
                    </mask>
                    <use id="Mask" fill="#322F2D" xlink:href="#path-1"></use>
                    <g id="Page-1" opacity="0.180000007" mask="url(#mask-2)" fill="#000000">
                        <g transform="translate(3.000000, 29.000000)" id="Fill-1">
                            <path d="M4.58920209,63.2643404 C4.25342405,63.2643404 3.98798268,62.9668385 4.05072016,62.6251978 C4.09843598,62.3650574 4.34726518,62.1869386 4.61606433,62.1869386 L13.1174339,62.1869386 C13.6048423,62.1869386 14,61.798205 14,61.3191088 L14,61.2848752 C14,60.8056052 13.6048423,60.4168716 13.1174339,60.4168716 L4.61606433,60.4170454 C4.34726518,60.4170454 4.09843598,60.2389266 4.05072016,59.9787861 C3.98798268,59.6371455 4.25342405,59.3396436 4.58920209,59.3396436 L13.1174339,59.3396436 C13.6048423,59.3396436 14,58.9510838 14,58.4718138 L14,58.437754 C14,57.9583102 13.6048423,57.5695766 13.1174339,57.5695766 L4.58920209,57.5695766 C4.28664841,57.5695766 4.04135372,57.3285514 4.04135372,57.0310495 C4.04135372,56.7335476 4.28664841,56.4923486 4.58937881,56.4923486 L13.1174339,56.4923486 C13.6048423,56.4923486 14,56.1037888 14,55.6245188 L14,55.5902852 C14,55.1110152 13.6048423,54.7224554 13.1174339,54.7224554 L4.61606433,54.7224554 C4.34726518,54.7224554 4.09843598,54.5443366 4.05072016,54.2841961 C3.98798268,53.9425555 4.25342405,53.6450536 4.58920209,53.6450536 L13.1174339,53.6450536 C13.6048423,53.6450536 14,53.2564938 14,52.7772238 L14,52.7429902 C14,52.2637202 13.6048423,51.8751604 13.1174339,51.8751604 L4.61606433,51.8751604 C4.34726518,51.8751604 4.09843598,51.6970416 4.05072016,51.4369011 C3.98798268,51.0952605 4.25342405,50.7977586 4.58920209,50.7977586 L13.1174339,50.7977586 C13.6048423,50.7977586 14,50.4091988 14,49.9299288 L14,49.8956952 C14,49.4164252 13.6048423,49.0278654 13.1174339,49.0278654 L4.61606433,49.0278654 C4.34726518,49.0278654 4.09843598,48.8497466 4.05072016,48.5896061 C3.98798268,48.2479655 4.25342405,47.9504636 4.58920209,47.9504636 L13.1174339,47.9504636 C13.6048423,47.9504636 14,47.5620776 14,47.0826338 L14,47.048574 C14,46.5691302 13.6048423,46.1805704 13.1174339,46.1805704 L4.61606433,46.1805704 C4.34726518,46.1805704 4.09843598,46.0024516 4.05072016,45.7423111 C3.98798268,45.4006705 4.25342405,45.1033424 4.58920209,45.1033424 L13.1174339,45.1033424 C13.6048423,45.1033424 14,44.7146088 14,44.2355126 L14,44.2011052 C14,43.7218352 13.6048423,43.3334492 13.1174339,43.3334492 L4.61606433,43.3334492 C4.34726518,43.3334492 4.09843598,43.1551566 4.05072016,42.8950161 C3.98798268,42.5533755 4.25342405,42.2560474 4.58920209,42.2560474 L13.1174339,42.2558736 C13.6048423,42.2558736 14,41.8674876 14,41.3880438 L14,41.353984 C14,40.8745402 13.6048423,40.4859804 13.1174339,40.4859804 L4.61606433,40.4859804 C4.34726518,40.4859804 4.09843598,40.3078616 4.05072016,40.0477211 C3.98798268,39.7060805 4.25342405,39.4087524 4.58920209,39.4087524 L13.1174339,39.4087524 C13.6048423,39.4087524 14,39.0201926 14,38.5409226 L14,38.506689 C14,38.0272452 13.6048423,37.6388592 13.1174339,37.6388592 L4.61606433,37.6388592 C4.34726518,37.6388592 4.09843598,37.4605666 4.05072016,37.2005999 C3.98798268,36.8587855 4.25342405,36.5614574 4.58920209,36.5614574 L13.1174339,36.5614574 C13.6048423,36.5614574 14,36.1728976 14,35.6936276 L14,35.659394 C14,35.1801239 13.6048423,34.7915642 13.1174339,34.7915642 L4.61606433,34.7915642 C4.34726518,34.7915642 4.09843598,34.6132716 4.05072016,34.3533049 C3.98798268,34.0116643 4.25342405,33.7141624 4.58920209,33.7141624 L13.1174339,33.7141624 C13.6048423,33.7141624 14,33.3256026 14,32.8463326 L14,32.812099 C14,32.3328289 13.6048423,31.9442692 13.1174339,31.9442692 L4.61606433,31.9442692 C4.34726518,31.9442692 4.09843598,31.7661503 4.05072016,31.5060099 C3.98798268,31.1643693 4.25342405,30.8668674 4.58920209,30.8668674 L13.0999381,30.8668674 C13.5970664,30.8668674 14,30.4706615 14,29.9820077 C14,29.49318 13.5970664,29.0969742 13.0999381,29.0969742 L4.61606433,29.0969742 C4.34726518,29.0969742 4.09843598,28.9186816 4.05072016,28.6587149 C3.98798268,28.3170743 4.25342405,28.0195724 4.58920209,28.0195724 L13.0999381,28.0195724 C13.5970664,28.0195724 14,27.6233665 14,27.1347127 C14,26.645885 13.5970664,26.2496792 13.0999381,26.2496792 L4.58920209,26.2496792 C4.28664841,26.2496792 4.04135372,26.0084802 4.04135372,25.7109783 C4.04135372,25.4134763 4.28664841,25.1722774 4.58937881,25.1722774 L13.0999381,25.1722774 C13.5970664,25.1722774 14,24.7760715 14,24.2874177 C14,23.79859 13.5970664,23.4023842 13.0999381,23.4023842 L4.61606433,23.4023842 C4.34726518,23.4023842 4.09843598,23.2242653 4.05072016,22.9641249 C3.98798268,22.6224843 4.25342405,22.3251561 4.58920209,22.3251561 L13.0999381,22.3251561 C13.5970664,22.3251561 14,21.9287765 14,21.4401227 C14,20.951295 13.5970664,20.555263 13.0999381,20.555263 L4.61606433,20.555263 C4.34726518,20.555263 4.09843598,20.3769703 4.05072016,20.1168299 C3.98798268,19.7751893 4.25342405,19.4778611 4.58920209,19.4778611 L13.0999381,19.4778611 C13.5970664,19.4778611 14,19.0816553 14,18.5928277 C14,18.1041738 13.5970664,17.7077942 13.0999381,17.7077942 L4.58920209,17.7077942 C4.28664841,17.7077942 4.04135372,17.466769 4.04135372,17.169267 C4.04135372,16.8717651 4.28664841,16.6305661 4.58937881,16.6305661 L13.0999381,16.6305661 C13.5970664,16.6305661 14,16.2343603 14,15.7455327 L14,15.7455327 C14,15.256705 13.5970664,14.860673 13.0999381,14.860673 L4.61606433,14.860673 C4.34726518,14.860673 4.09843598,14.6823803 4.05072016,14.4224137 C3.98798268,14.0805993 4.25342405,13.7832711 4.58920209,13.7832711 L13.0999381,13.7832711 C13.5970664,13.7832711 14,13.3870653 14,12.8982377 C14,12.4095838 13.5970664,12.013378 13.0999381,12.013378 L4.61606433,12.013378 C4.34726518,12.013378 4.09843598,11.8350853 4.05072016,11.5751187 C3.98798268,11.2333043 4.25342405,10.9359761 4.58920209,10.9359761 L13.0999381,10.9359761 C13.5970664,10.9359761 14,10.5397703 14,10.0509427 C14,9.5622888 13.5970664,9.16608296 13.0999381,9.16608296 L4.61606433,9.16608296 C4.34726518,9.16608296 4.09843598,8.98796411 4.05072016,8.7278237 C3.98798268,8.38618306 4.25342405,8.08868113 4.58920209,8.08868113 L13.0999381,8.08868113 C13.5970664,8.08868113 14,7.6924753 14,7.20382143 C14,6.7149938 13.5970664,6.31878796 13.0999381,6.31878796 L4.61606433,6.31878796 C4.34726518,6.31878796 4.09843598,6.14049534 4.05072016,5.8805287 C3.98798268,5.53871428 4.25342405,5.24138613 4.58920209,5.24138613 L13.0999381,5.24138613 C13.5970664,5.24138613 14,4.8451803 14,4.35635266 C14,3.8676988 13.5970664,3.47149296 13.0999381,3.47149296 L4.61606433,3.47149296 C4.34726518,3.47149296 4.09843598,3.29337411 4.05072016,3.0332337 C3.98798268,2.69159306 4.25342405,2.39409113 4.58920209,2.39409113 L12.7825395,2.39409113 C13.4549792,2.39409113 14,1.85817061 14,1.19713245 C14,0.535920524 13.4549792,0 12.7825395,0 L5.58222144,0 C2.49924892,0 0,2.45751882 0,5.48901478 L0,59.5109852 C0,62.542655 2.49924892,65 5.58222144,65 L13.1174339,65 C13.6048423,65 14,64.6114402 14,64.1321702 C14,63.6527264 13.6048423,63.2643404 13.1174339,63.2643404 L4.58920209,63.2643404 Z"></path>
                        </g>
                    </g>
                    <g id="Page-1" mask="url(#mask-2)" fill="#FFFFFF">
                        <g transform="translate(12.000000, 25.000000)" id="Fill-1">
                            <path d="M4.58920209,63.2643404 C4.25342405,63.2643404 3.98798268,62.9668385 4.05072016,62.6251978 C4.09843598,62.3650574 4.34726518,62.1869386 4.61606433,62.1869386 L13.1174339,62.1869386 C13.6048423,62.1869386 14,61.798205 14,61.3191088 L14,61.2848752 C14,60.8056052 13.6048423,60.4168716 13.1174339,60.4168716 L4.61606433,60.4170454 C4.34726518,60.4170454 4.09843598,60.2389266 4.05072016,59.9787861 C3.98798268,59.6371455 4.25342405,59.3396436 4.58920209,59.3396436 L13.1174339,59.3396436 C13.6048423,59.3396436 14,58.9510838 14,58.4718138 L14,58.437754 C14,57.9583102 13.6048423,57.5695766 13.1174339,57.5695766 L4.58920209,57.5695766 C4.28664841,57.5695766 4.04135372,57.3285514 4.04135372,57.0310495 C4.04135372,56.7335476 4.28664841,56.4923486 4.58937881,56.4923486 L13.1174339,56.4923486 C13.6048423,56.4923486 14,56.1037888 14,55.6245188 L14,55.5902852 C14,55.1110152 13.6048423,54.7224554 13.1174339,54.7224554 L4.61606433,54.7224554 C4.34726518,54.7224554 4.09843598,54.5443366 4.05072016,54.2841961 C3.98798268,53.9425555 4.25342405,53.6450536 4.58920209,53.6450536 L13.1174339,53.6450536 C13.6048423,53.6450536 14,53.2564938 14,52.7772238 L14,52.7429902 C14,52.2637202 13.6048423,51.8751604 13.1174339,51.8751604 L4.61606433,51.8751604 C4.34726518,51.8751604 4.09843598,51.6970416 4.05072016,51.4369011 C3.98798268,51.0952605 4.25342405,50.7977586 4.58920209,50.7977586 L13.1174339,50.7977586 C13.6048423,50.7977586 14,50.4091988 14,49.9299288 L14,49.8956952 C14,49.4164252 13.6048423,49.0278654 13.1174339,49.0278654 L4.61606433,49.0278654 C4.34726518,49.0278654 4.09843598,48.8497466 4.05072016,48.5896061 C3.98798268,48.2479655 4.25342405,47.9504636 4.58920209,47.9504636 L13.1174339,47.9504636 C13.6048423,47.9504636 14,47.5620776 14,47.0826338 L14,47.048574 C14,46.5691302 13.6048423,46.1805704 13.1174339,46.1805704 L4.61606433,46.1805704 C4.34726518,46.1805704 4.09843598,46.0024516 4.05072016,45.7423111 C3.98798268,45.4006705 4.25342405,45.1033424 4.58920209,45.1033424 L13.1174339,45.1033424 C13.6048423,45.1033424 14,44.7146088 14,44.2355126 L14,44.2011052 C14,43.7218352 13.6048423,43.3334492 13.1174339,43.3334492 L4.61606433,43.3334492 C4.34726518,43.3334492 4.09843598,43.1551566 4.05072016,42.8950161 C3.98798268,42.5533755 4.25342405,42.2560474 4.58920209,42.2560474 L13.1174339,42.2558736 C13.6048423,42.2558736 14,41.8674876 14,41.3880438 L14,41.353984 C14,40.8745402 13.6048423,40.4859804 13.1174339,40.4859804 L4.61606433,40.4859804 C4.34726518,40.4859804 4.09843598,40.3078616 4.05072016,40.0477211 C3.98798268,39.7060805 4.25342405,39.4087524 4.58920209,39.4087524 L13.1174339,39.4087524 C13.6048423,39.4087524 14,39.0201926 14,38.5409226 L14,38.506689 C14,38.0272452 13.6048423,37.6388592 13.1174339,37.6388592 L4.61606433,37.6388592 C4.34726518,37.6388592 4.09843598,37.4605666 4.05072016,37.2005999 C3.98798268,36.8587855 4.25342405,36.5614574 4.58920209,36.5614574 L13.1174339,36.5614574 C13.6048423,36.5614574 14,36.1728976 14,35.6936276 L14,35.659394 C14,35.1801239 13.6048423,34.7915642 13.1174339,34.7915642 L4.61606433,34.7915642 C4.34726518,34.7915642 4.09843598,34.6132716 4.05072016,34.3533049 C3.98798268,34.0116643 4.25342405,33.7141624 4.58920209,33.7141624 L13.1174339,33.7141624 C13.6048423,33.7141624 14,33.3256026 14,32.8463326 L14,32.812099 C14,32.3328289 13.6048423,31.9442692 13.1174339,31.9442692 L4.61606433,31.9442692 C4.34726518,31.9442692 4.09843598,31.7661503 4.05072016,31.5060099 C3.98798268,31.1643693 4.25342405,30.8668674 4.58920209,30.8668674 L13.0999381,30.8668674 C13.5970664,30.8668674 14,30.4706615 14,29.9820077 C14,29.49318 13.5970664,29.0969742 13.0999381,29.0969742 L4.61606433,29.0969742 C4.34726518,29.0969742 4.09843598,28.9186816 4.05072016,28.6587149 C3.98798268,28.3170743 4.25342405,28.0195724 4.58920209,28.0195724 L13.0999381,28.0195724 C13.5970664,28.0195724 14,27.6233665 14,27.1347127 C14,26.645885 13.5970664,26.2496792 13.0999381,26.2496792 L4.58920209,26.2496792 C4.28664841,26.2496792 4.04135372,26.0084802 4.04135372,25.7109783 C4.04135372,25.4134763 4.28664841,25.1722774 4.58937881,25.1722774 L13.0999381,25.1722774 C13.5970664,25.1722774 14,24.7760715 14,24.2874177 C14,23.79859 13.5970664,23.4023842 13.0999381,23.4023842 L4.61606433,23.4023842 C4.34726518,23.4023842 4.09843598,23.2242653 4.05072016,22.9641249 C3.98798268,22.6224843 4.25342405,22.3251561 4.58920209,22.3251561 L13.0999381,22.3251561 C13.5970664,22.3251561 14,21.9287765 14,21.4401227 C14,20.951295 13.5970664,20.555263 13.0999381,20.555263 L4.61606433,20.555263 C4.34726518,20.555263 4.09843598,20.3769703 4.05072016,20.1168299 C3.98798268,19.7751893 4.25342405,19.4778611 4.58920209,19.4778611 L13.0999381,19.4778611 C13.5970664,19.4778611 14,19.0816553 14,18.5928277 C14,18.1041738 13.5970664,17.7077942 13.0999381,17.7077942 L4.58920209,17.7077942 C4.28664841,17.7077942 4.04135372,17.466769 4.04135372,17.169267 C4.04135372,16.8717651 4.28664841,16.6305661 4.58937881,16.6305661 L13.0999381,16.6305661 C13.5970664,16.6305661 14,16.2343603 14,15.7455327 L14,15.7455327 C14,15.256705 13.5970664,14.860673 13.0999381,14.860673 L4.61606433,14.860673 C4.34726518,14.860673 4.09843598,14.6823803 4.05072016,14.4224137 C3.98798268,14.0805993 4.25342405,13.7832711 4.58920209,13.7832711 L13.0999381,13.7832711 C13.5970664,13.7832711 14,13.3870653 14,12.8982377 C14,12.4095838 13.5970664,12.013378 13.0999381,12.013378 L4.61606433,12.013378 C4.34726518,12.013378 4.09843598,11.8350853 4.05072016,11.5751187 C3.98798268,11.2333043 4.25342405,10.9359761 4.58920209,10.9359761 L13.0999381,10.9359761 C13.5970664,10.9359761 14,10.5397703 14,10.0509427 C14,9.5622888 13.5970664,9.16608296 13.0999381,9.16608296 L4.61606433,9.16608296 C4.34726518,9.16608296 4.09843598,8.98796411 4.05072016,8.7278237 C3.98798268,8.38618306 4.25342405,8.08868113 4.58920209,8.08868113 L13.0999381,8.08868113 C13.5970664,8.08868113 14,7.6924753 14,7.20382143 C14,6.7149938 13.5970664,6.31878796 13.0999381,6.31878796 L4.61606433,6.31878796 C4.34726518,6.31878796 4.09843598,6.14049534 4.05072016,5.8805287 C3.98798268,5.53871428 4.25342405,5.24138613 4.58920209,5.24138613 L13.0999381,5.24138613 C13.5970664,5.24138613 14,4.8451803 14,4.35635266 C14,3.8676988 13.5970664,3.47149296 13.0999381,3.47149296 L4.61606433,3.47149296 C4.34726518,3.47149296 4.09843598,3.29337411 4.05072016,3.0332337 C3.98798268,2.69159306 4.25342405,2.39409113 4.58920209,2.39409113 L12.7825395,2.39409113 C13.4549792,2.39409113 14,1.85817061 14,1.19713245 C14,0.535920524 13.4549792,0 12.7825395,0 L5.58222144,0 C2.49924892,0 0,2.45751882 0,5.48901478 L0,59.5109852 C0,62.542655 2.49924892,65 5.58222144,65 L13.1174339,65 C13.6048423,65 14,64.6114402 14,64.1321702 C14,63.6527264 13.6048423,63.2643404 13.1174339,63.2643404 L4.58920209,63.2643404 Z"></path>
                        </g>
                    </g>
                    <g id="Page-1" mask="url(#mask-2)">
                        <g transform="translate(54.892305, 46.918584) rotate(-300.000000) translate(-54.892305, -46.918584) translate(31.892305, 34.918584)">
                            <path d="M39.2228941,9.20753415 C37.0433383,9.95432561 34.8159502,9.18078892 34.2499354,7.48384999 C33.6832372,5.78552769 34.9915629,3.8036137 37.1720298,3.05820561 C39.3527245,2.31441146 41.5803403,3.08472028 42.1468108,4.78396483 C42.7125979,6.48090375 41.4044999,8.46166493 39.2228941,9.20753415 M34.0506343,17.3058063 C34.6897642,15.6358431 36.9460794,14.9614482 39.0932915,15.8013869 C41.2402759,16.6422478 42.464098,18.6788051 41.8249681,20.3492293 C41.1853827,22.0208064 38.9281564,22.6949707 36.7813998,21.8543404 C34.6341877,21.015324 33.4115045,18.9773833 34.0506343,17.3058063 M45.3991755,0.408583043 C45.2875669,-0.27249815 44.2571237,-0.0377856737 44.368049,0.639837084 C44.5698555,1.87426793 43.8726436,3.04137456 42.8686221,3.7093137 C42.8342284,3.65928167 42.7984681,3.61040245 42.7606579,3.56267604 C41.6625663,2.02828358 39.2602488,1.42720752 36.8980194,2.23532857 C35.2694454,2.79236722 34.0310459,3.89307189 33.4288152,5.14156704 C32.0034144,8.11374634 29.4416561,8.55112313 27.4067359,9.48974247 C27.0664437,9.64652487 26.0719886,10.0998105 24.6554709,10.7442322 C16.8303438,6.91597491 1.71649418,0.190932181 0.447800896,1.37048918 C0.447800896,1.37048918 13.5832179,8.01414341 21.6602614,12.1057029 C13.5729681,15.7806363 0,21.9384956 0,21.9384956 C1.21881109,23.1745404 16.6613366,17.0906916 24.6295048,13.610814 C26.2255073,14.4200878 27.3500205,14.9914214 27.7105845,15.177024 C29.7029113,16.2021043 31.8339516,16.5786126 33.1302053,19.6116604 C33.6791373,20.8850562 34.8701601,22.0383291 36.4714013,22.6652282 C39.1928281,23.7311179 42.0575239,22.8764233 42.8672554,20.7564024 C43.6758481,18.6368427 42.1260835,16.0552361 39.4039733,14.9893463 C37.9241349,14.4108653 36.4048917,14.4018734 35.1963304,14.8528534 C35.194736,14.8530839 32.5179526,15.0183971 28.6446799,12.7964677 C28.3825136,12.6461411 28.0449547,12.4621523 27.6440749,12.2509572 C28.0497379,12.0591293 28.3913968,11.8917411 28.6576629,11.7538648 C32.6209058,9.70185983 35.2881228,9.98545153 35.2890339,9.98591265 C36.4786901,10.4876163 37.996111,10.545718 39.4982712,10.0313334 C41.9629983,9.18931972 43.5412345,7.10526661 43.3526388,5.13787804 C43.3366947,4.98294014 43.3132342,4.83976092 43.2845348,4.70442082 C44.7500236,3.80776382 45.6852578,2.15670681 45.3991755,0.408583043" id="Fill-1" fill="#B7872D"></path>
                            <path d="M24.7187495,12.7580643 C24.2785495,12.7580643 23.9213705,12.4011632 23.9213705,11.9605807 C23.9213705,11.5204166 24.2785495,11.1633062 24.7187495,11.1633062 C25.1589496,11.1633062 25.5161286,11.5204166 25.5161286,11.9605807 C25.5161286,12.4011632 25.1589496,12.7580643 24.7187495,12.7580643" id="Fill-4" fill="#FFFFFF"></path>
                        </g>
                    </g>
                </g>
                <circle id="Oval" fill="#000000" cx="35" cy="7" r="3"></circle>
                <circle id="Oval-Copy-6" fill="#000000" cx="25" cy="7" r="3"></circle>
                <circle id="Oval-Copy-7" fill="#000000" cx="15" cy="7" r="3"></circle>
                <circle id="Oval-Copy-8" fill="#000000" cx="5" cy="7" r="3"></circle>
                <circle id="Oval-Copy" fill="#000000" cx="45" cy="7" r="3"></circle>
                <circle id="Oval-Copy-3" fill="#000000" cx="55" cy="7" r="3"></circle>
                <circle id="Oval-Copy-4" fill="#000000" cx="65" cy="7" r="3"></circle>
                <circle id="Oval-Copy-5" fill="#000000" cx="75" cy="7" r="3"></circle>
                <g id="Page-1" transform="translate(13.000000, 59.000000)">
                    <path d="M54.374306,1.93414328 C50.9078253,-1.61149851 45.9887009,0.525426866 45.9887009,3.7808 C45.9887009,6.68399403 48.8262245,6.27903881 48.8262245,6.27903881 C47.3067953,6.27903881 47.4447695,3.40654627 49.6545592,3.40654627 C51.8655721,3.40654627 53.2568124,6.87784478 50.0699498,8.36623284 C47.3001901,9.65823284 44.2092245,5.28694925 37.0157266,2.52000896 C31.009688,0.209785075 28.6340356,4.46359104 28.3781472,4.71656119 C28.123482,4.46359104 25.7478296,0.209785075 19.7415464,2.52000896 C12.5468253,5.28694925 9.45732747,9.65823284 6.68854635,8.36623284 C3.49997124,6.87784478 4.89170086,3.40654627 7.10149056,3.40654627 C9.3129927,3.40654627 9.44900987,6.27903881 7.93153777,6.27903881 C7.93153777,6.27903881 10.7688167,6.68399403 10.7688167,3.7808 C10.7688167,0.525426866 5.85042618,-1.61149851 2.38345622,1.93414328 C-2.39622618,6.82684478 0.380383262,14.4989194 7.44153348,16.4592478 C13.3900828,18.1120537 25.7077094,16.2651433 28.3781472,6.8699791 C31.0473618,16.2651433 43.365233,18.1120537 49.3135378,16.4592478 C56.3771343,14.4989194 59.1537438,6.82684478 54.374306,1.93414328" id="Fill-1" fill="#000000"></path>
                    <path d="M1,12.2624657 C2.26773447,14.172583 4.33643995,15.7290305 7.03043695,16.4661764 C12.9883479,18.0977662 25.3253596,16.2745636 28,7 C20.670956,16.7770151 1.10511366,12.2865112 1,12.2624657" id="Fill-4" fill="#211F1F"></path>
                    <path d="M55,12.2624657 C53.7322655,14.172583 51.6635601,15.7290305 48.969563,16.4661764 C43.0116521,18.0977662 30.6746404,16.2745636 28,7 C35.329044,16.7770151 54.8948863,12.2865112 55,12.2624657" id="Fill-6" fill="#211F1F"></path>
                    <path d="M33.4272776,7.93791648 C31.7873996,8.24233209 30.2668579,7.39773605 30.0311088,6.05125084 C29.7945624,4.70476563 30.9326431,3.3667592 32.5725211,3.06207008 C34.2123991,2.75765448 35.7329408,3.60252403 35.9689557,4.94873573 C36.2052363,6.29522094 35.0671557,7.63350087 33.4272776,7.93791648" id="Fill-8" fill="#322F2D"></path>
                    <path d="M23.5727224,7.93791648 C25.2126004,8.24233209 26.7331421,7.39773605 26.9688912,6.05125084 C27.2054376,4.70476563 26.0673569,3.3667592 24.4274789,3.06207008 C22.7876009,2.75765448 21.2670592,3.60252403 21.0310443,4.94873573 C20.7947637,6.29522094 21.9328443,7.63350087 23.5727224,7.93791648" id="Fill-10" fill="#322F2D"></path>
                </g>
                <path d="M79,15.5 L1.29569172,15.5" id="Line-5" stroke="#000000" stroke-width="2" stroke-linecap="square"></path>
            </g>
            <g id="Group-14" transform="translate(102.000000, 1.000000)">
                <polygon id="Rectangle-16" fill="#322F2D" points="0 0 80 0 80 64 40 81.5503244 0 64"></polygon>
                <g id="Rectangle-+-Rectangle-Copy-2-+-Rectangle-Copy-Mask">
                    <mask id="mask-4" fill="white">
                        <use xlink:href="#path-3"></use>
                    </mask>
                    <g id="Mask"></g>
                </g>
                <g id="Page-1" transform="translate(7.000000, 15.000000)">
                    <path d="M24,39.5003179 C24,40.880801 19.7467336,42 14.5001589,42 C9.25326642,42 5,40.880801 5,39.5003179 C5,38.119199 9.25326642,37 14.5001589,37 C19.7467336,37 24,38.119199 24,39.5003179" id="Fill-1" fill="#FFFFFF"></path>
                    <g id="Group-5">
                        <mask id="mask-6" fill="white">
                            <use xlink:href="#path-5"></use>
                        </mask>
                        <g id="Clip-4"></g>
                        <path d="M14.8447979,20.8531766 C11.2965,20.8531766 8.42096809,17.9662 8.42096809,14.4052859 C8.42096809,10.8446922 11.2965,7.95771563 14.8447979,7.95771563 C18.3927766,7.95771563 21.2686277,10.8446922 21.2686277,14.4052859 C21.2686277,17.9662 18.3927766,20.8531766 14.8447979,20.8531766 M14.8447979,0.116465625 C6.6465,0.116465625 -9.57446809e-05,6.78697344 -9.57446809e-05,15.0154813 C-9.57446809e-05,23.8135047 14.8447979,40.8054422 14.8447979,40.8054422 C14.8447979,40.8054422 29.6896915,24.4672625 29.6896915,15.0154813 C29.6896915,6.78697344 23.0434149,0.116465625 14.8447979,0.116465625" id="Fill-3" fill="#B7872D" mask="url(#mask-6)"></path>
                    </g>
                </g>
                <g id="Group-12" transform="translate(46.000000, 5.000000)">
                    <rect id="Rectangle-17" stroke="#FFFFFF" stroke-width="2" x="0" y="5" width="27" height="22" rx="2"></rect>
                    <path d="M0.5,11.5 L26.5192237,11.5" id="Line-4" stroke="#FFFFFF" stroke-linecap="square"></path>
                    <rect id="Rectangle-18" fill="#E0E5EB" x="4" y="14" width="4" height="2"></rect>
                    <rect id="Rectangle-18-Copy-3" fill="#E0E5EB" x="4" y="18" width="4" height="2"></rect>
                    <rect id="Rectangle-18-Copy-6" fill="#E0E5EB" x="4" y="22" width="4" height="2"></rect>
                    <rect id="Rectangle-18-Copy" fill="#E0E5EB" x="12" y="14" width="4" height="2"></rect>
                    <rect id="Rectangle-18-Copy-4" fill="#E0E5EB" x="12" y="18" width="4" height="2"></rect>
                    <rect id="Rectangle-18-Copy-7" fill="#E0E5EB" x="12" y="22" width="4" height="2"></rect>
                    <rect id="Rectangle-18-Copy-2" fill="#E0E5EB" x="20" y="14" width="4" height="2"></rect>
                    <rect id="Rectangle-18-Copy-5" fill="#E0E5EB" x="20" y="18" width="4" height="2"></rect>
                    <rect id="Rectangle-18-Copy-8" fill="#E0E5EB" x="20" y="22" width="4" height="2"></rect>
                    <rect id="Rectangle-19" fill="#B7872D" x="7" y="0" width="2" height="8"></rect>
                    <rect id="Rectangle-19-Copy" fill="#B7872D" x="19" y="0" width="2" height="8"></rect>
                </g>
            </g>
            <rect id="Rectangle" fill="#000000" transform="translate(150.245373, 58.081962) rotate(66.000000) translate(-150.245373, -58.081962) " x="149.245373" y="33.0819615" width="2" height="50"></rect>
            <rect id="Rectangle-Copy" fill="#000000" transform="translate(153.245373, 63.081962) rotate(66.000000) translate(-153.245373, -63.081962) " x="152.245373" y="38.0819615" width="2" height="50"></rect>
            <rect id="Rectangle-Copy-2" fill="#000000" transform="translate(156.245373, 69.081962) rotate(66.000000) translate(-156.245373, -69.081962) " x="155.245373" y="44.0819615" width="2" height="50"></rect>
            <g id="Group-16" transform="translate(208.000000, 3.000000)">
                <g id="Group-15">
                    <circle id="Oval-Copy-2" fill="#322F2D" cx="40" cy="40" r="40"></circle>
                    <g id="Line-6-Copy-+-Line-6-Copy-3-+-Line-6-Copy-2-+-Line-6-Copy-4-+-Line-7-+-Line-7-Copy-2-+-Line-7-Copy-+-Line-7-Copy-3-Mask">
                        <mask id="mask-8" fill="white">
                            <use xlink:href="#path-7"></use>
                        </mask>
                        <g id="Mask"></g>
                        <path d="M12.5,7.5 L12.5,35.5" id="Line-6-Copy" stroke="#000000" stroke-width="2" stroke-linecap="square" mask="url(#mask-8)"></path>
                        <path d="M74.5,7.5 L74.5,35.5" id="Line-6-Copy-3" stroke="#000000" stroke-width="2" stroke-linecap="square" mask="url(#mask-8)"></path>
                        <path d="M6.5,7.5 L6.5,35.5" id="Line-6-Copy-2" stroke="#000000" stroke-width="2" stroke-linecap="square" mask="url(#mask-8)"></path>
                        <path d="M68.5,7.5 L68.5,35.5" id="Line-6-Copy-4" stroke="#000000" stroke-width="2" stroke-linecap="square" mask="url(#mask-8)"></path>
                        <path d="M12.5,6.5 L12.5,34.5" id="Line-6" stroke="#000000" stroke-width="2" stroke-linecap="square" mask="url(#mask-8)"></path>
                        <path d="M68.5,41.5 L82.6421356,41.5" id="Line-7" stroke="#000000" stroke-width="2" stroke-linecap="square" mask="url(#mask-8)"></path>
                        <path d="M-1.5,41.5 L12.6421356,41.5" id="Line-7-Copy-2" stroke="#000000" stroke-width="2" stroke-linecap="square" mask="url(#mask-8)"></path>
                        <path d="M68.5,47.5 L82.6421356,47.5" id="Line-7-Copy" stroke="#000000" stroke-width="2" stroke-linecap="square" mask="url(#mask-8)"></path>
                        <path d="M-1.5,47.5 L12.6421356,47.5" id="Line-7-Copy-3" stroke="#000000" stroke-width="2" stroke-linecap="square" mask="url(#mask-8)"></path>
                    </g>
                </g>
                <g id="Page-1" transform="translate(19.000000, 17.000000)">
                    <g id="Group-2">
                        <path d="M0,15.0754717 C8.61585012,15.0754717 8.78807976,20.5763518 8.78807976,22.4676684 L8.78807976,34.8446487 L34.6063012,34.8446487 L34.6063012,21.4360978 C34.6063012,13.3566023 43,15.2964781 43,15.2964781 L43,39.0188679 L0,38.7984841 L0,15.0754717 Z" id="Fill-1" fill="#FFB901"></path>
                        <path d="M35.1020408,31.9245283 L8.7755102,31.9245283 L8.7755102,5.85486357 C8.7755102,2.6214663 11.3497045,0 14.524795,0 L29.3533833,0 C32.5278466,0 35.1020408,2.6214663 35.1020408,5.85486357 L35.1020408,31.9245283 Z" id="Fill-3" fill="#B7872D"></path>
                        <polygon id="Fill-5" fill="#9B7B22" points="0 44.3396226 43 44.3396226 43 38.1320755 0 38.1320755"></polygon>
                        <polygon id="Fill-7" fill="#DDAE30" points="0 47 43 47 43 44.3396226 0 44.3396226"></polygon>
                        <polygon id="Fill-8" fill="#322F2D" points="8.7755102 35.4716981 35.1020408 35.4716981 35.1020408 31.0377358 8.7755102 31.0377358"></polygon>
                        <path d="M35.1020408,35.4716981 L8.7755102,35.4716981 C8.7755102,33.0228824 10.6586515,31.0377358 12.9816366,31.0377358 L30.8959144,31.0377358 C33.2188996,31.0377358 35.1020408,33.0228824 35.1020408,35.4716981" id="Fill-9" fill="#FDD639"></path>
                        <path d="M21.7985521,12.4150943 C21.7985521,12.4150943 20.6978809,15.8591523 18.4285714,16.093778 C18.4285714,16.093778 21.2680128,16.9254643 22.0789989,19.509434 C22.0789989,19.509434 23.132819,16.4895545 25.4489796,16.093778 C25.4489796,16.093778 22.9256183,15.3256876 21.7985521,12.4150943" id="Fill-10" fill="#FFFFFF"></path>
                    </g>
                </g>
            </g>
        </g>
    </g>
</svg>