<?xml version="1.0" encoding="UTF-8" standalone="no"?>
<svg width="47px" height="47px" viewBox="0 0 47 47" version="1.1" xmlns="http://www.w3.org/2000/svg" xmlns:xlink="http://www.w3.org/1999/xlink">
    <!-- Generator: Sketch 3.6.1 (26313) - http://www.bohemiancoding.com/sketch -->
    <title>clock</title>
    <desc>Created with Sketch.</desc>
    <defs></defs>
    <g id="Page-1" stroke="none" stroke-width="1" fill="none" fill-rule="evenodd">
        <g id="clock" fill="#C0A03A">
            <path d="M23.5,2 C11.645,2 2,11.645 2,23.5 C2,35.355 11.645,45 23.5,45 C35.355,45 45,35.355 45,23.5 C45,11.645 35.355,2 23.5,2 M23.5,47 C10.542,47 0,36.458 0,23.5 C0,10.542 10.542,0 23.5,0 C36.458,0 47,10.542 47,23.5 C47,36.458 36.458,47 23.5,47" id="Fill-1"></path>
            <path d="M37,24.6826 L22.5,24.6826 L22.5,10.1826 L24.5,10.1826 L24.5,22.6826 L37,22.6826 L37,24.6826 Z" id="Fill-3"></path>
        </g>
    </g>
</svg>