<?xml version="1.0" encoding="UTF-8" standalone="no"?>
<svg width="34px" height="52px" viewBox="0 0 34 52" version="1.1" xmlns="http://www.w3.org/2000/svg" xmlns:xlink="http://www.w3.org/1999/xlink">
    <!-- Generator: Sketch 3.6.1 (26313) - http://www.bohemiancoding.com/sketch -->
    <title>flag</title>
    <desc>Created with Sketch.</desc>
    <defs></defs>
    <g id="Page-1" stroke="none" stroke-width="1" fill="none" fill-rule="evenodd">
        <g id="flag" fill="#C0A03A">
            <path d="M16.9928,1.9995 C12.3168,1.9995 7.7668,4.2105 4.9078,8.0925 C2.2358,11.7185 1.4368,15.9775 2.3918,21.4945 C3.2608,26.5125 5.2108,31.4725 8.5298,37.1025 C10.9748,41.2515 13.7338,45.0545 16.9438,48.6965 C22.7798,41.9935 26.9108,35.3725 29.5628,28.4775 C31.4318,23.6165 32.1448,19.4995 31.8078,15.5235 C31.2898,9.4235 26.9198,4.2045 20.9328,2.5365 C19.6328,2.1745 18.3078,1.9995 16.9928,1.9995 L16.9928,1.9995 Z M16.8338,51.5655 L16.1698,50.8325 C12.5628,46.8475 9.4998,42.6875 6.8068,38.1175 C3.3618,32.2725 1.3328,27.0995 0.4218,21.8355 C-0.6332,15.7445 0.2808,11.0005 3.2968,6.9055 C7.4508,1.2695 14.7538,-1.2615 21.4698,0.6095 C28.2568,2.5005 33.2118,8.4265 33.7998,15.3545 C34.1638,19.6435 33.4108,24.0415 31.4298,29.1945 C28.6288,36.4785 24.2428,43.4465 18.0238,50.4995 C17.9428,50.5915 17.8518,50.6735 17.7218,50.7825 L16.8338,51.5655 Z" id="Fill-1"></path>
            <path d="M16.9274,9.5786 C12.8324,9.5786 9.4754,12.8476 9.4324,16.9746 C9.4114,18.9616 10.1894,20.8696 11.6234,22.3156 C13.0594,23.7636 14.9484,24.5786 16.9434,24.5786 L16.9454,24.5786 L16.9454,24.5256 C20.9454,24.5166 24.4474,21.1896 24.4594,17.0576 C24.4694,12.9376 21.1174,9.5786 16.9774,9.5786 L16.9274,9.5786 Z M16.9434,26.5786 C14.4104,26.5786 12.0184,25.5186 10.2034,23.6896 C8.3904,21.8606 7.4064,19.5056 7.4324,16.9806 C7.4874,11.7596 11.7404,7.5786 16.9274,7.5786 L16.9904,7.5786 C22.2284,7.5786 26.4694,11.8186 26.4564,17.0366 C26.4424,22.2666 21.9454,26.5476 16.9454,26.5606 L16.9454,26.5786 L16.9434,26.5786 Z" id="Fill-3"></path>
        </g>
    </g>
</svg>