<?xml version="1.0" encoding="UTF-8" standalone="no"?>
<svg width="30px" height="62px" viewBox="0 0 30 62" version="1.1" xmlns="http://www.w3.org/2000/svg" xmlns:xlink="http://www.w3.org/1999/xlink">
    <!-- Generator: Sketch 3.6.1 (26313) - http://www.bohemiancoding.com/sketch -->
    <title>pole</title>
    <desc>Created with Sketch.</desc>
    <defs>
        <path id="path-1" d="M30,30.99995 L30,0 L0,0 L0,30.99995 L0,61.9999 L30,61.9999 L30,30.99995 L30,30.99995 Z"></path>
    </defs>
    <g id="Page-1" stroke="none" stroke-width="1" fill="none" fill-rule="evenodd">
        <g id="pole">
            <mask id="mask-2" fill="white">
                <use xlink:href="#path-1"></use>
            </mask>
            <g id="Clip-2"></g>
            <path d="M27,21.6609 L19.559,14.4999 L27,14.4999 L27,21.6609 Z M13.049,47.4999 L4,38.1869 L4,21.3249 L27,44.3239 L27,47.4999 L13.049,47.4999 Z M15.085,59.9999 C9.188,59.9999 4.322,53.4999 3.662,49.4999 L26.508,49.4999 C25.848,53.4999 20.982,59.9999 15.085,59.9999 L15.085,59.9999 Z M4,40.9799 L10.208,47.4999 L4,47.4999 L4,40.9799 Z M16.759,14.4999 L27,24.4979 L27,41.4959 L4,18.4969 L4,14.4999 L16.759,14.4999 Z M15.085,1.9999 C20.982,1.9999 25.848,7.4999 26.508,12.4999 L3.662,12.4999 C4.322,7.4999 9.188,1.9999 15.085,1.9999 L15.085,1.9999 Z M30,14.4999 L30,12.4999 L28.585,12.4999 L28.52,12.4999 C27.871,6.4999 22.319,-0.0001 15.085,-0.0001 C7.851,-0.0001 2.299,6.4999 1.65,12.4999 L1.585,12.4999 L0,12.4999 L0,14.4999 L2,14.4999 L2,47.4999 L0,47.4999 L0,49.4999 L1.585,49.4999 L1.65,49.4999 C2.299,54.4999 7.851,61.9999 15.085,61.9999 C22.319,61.9999 27.871,54.4999 28.52,49.4999 L28.585,49.4999 L30,49.4999 L30,47.4999 L29,47.4999 L29,14.4999 L30,14.4999 Z" id="Fill-1" fill="#C0A03A" mask="url(#mask-2)"></path>
        </g>
    </g>
</svg>